<?xml version="1.0" encoding="UTF-8" standalone="no"?>
<!-- Created with Inkscape (http://www.inkscape.org/) -->

<svg
   width="15.875382mm"
   height="15.864625mm"
   viewBox="0 0 15.875382 15.864625"
   version="1.1"
   id="svg5"
   inkscape:version="1.1.1 (50ffc5b540, 2022-01-11)"
   sodipodi:docname="clean.svg"
   xmlns:inkscape="http://www.inkscape.org/namespaces/inkscape"
   xmlns:sodipodi="http://sodipodi.sourceforge.net/DTD/sodipodi-0.dtd"
   xmlns="http://www.w3.org/2000/svg"
   xmlns:svg="http://www.w3.org/2000/svg">
  <sodipodi:namedview
     id="namedview7"
     pagecolor="#ffffff"
     bordercolor="#666666"
     borderopacity="1.0"
     inkscape:pageshadow="2"
     inkscape:pageopacity="0.0"
     inkscape:pagecheckerboard="0"
     inkscape:document-units="mm"
     showgrid="false"
     inkscape:zoom="0.1781706"
     inkscape:cx="-370.4315"
     inkscape:cy="-232.92283"
     inkscape:window-width="1920"
     inkscape:window-height="972"
     inkscape:window-x="1920"
     inkscape:window-y="1107"
     inkscape:window-maximized="1"
     inkscape:current-layer="layer1" />
  <defs
     id="defs2" />
  <g
     inkscape:label="Layer 1"
     inkscape:groupmode="layer"
     id="layer1"
     transform="translate(-106.31332,-101.27016)">
    <g
       style="fill:none"
       id="g37"
       transform="matrix(0.26458333,0,0,0.26458333,105.78459,100.73098)">
      <path
         d="M 28.136,27.3789 32.379,23.1359 15.745,6.4999 C 15.1821,5.93697 14.4186,5.62073 13.6225,5.62073 c -0.7961,0 -1.5596,0.31624 -2.1225,0.87917 -0.5629,0.56292 -0.8792,1.3264 -0.8792,2.1225 0,0.79609 0.3163,1.5596 0.8792,2.1225 z"
         fill="#000000"
         id="path22"
         style="fill:#5d78ff;fill-opacity:1" />
      <path
         d="M 33.405,36.2509 60.828,8.82795 c 0.7499,-0.75012 1.1712,-1.76735 1.1712,-2.828 0,-1.06066 -0.4213,-2.07789 -1.1712,-2.828 C 60.0664,2.44405 59.0535,2.03784 58,2.03784 c -1.0535,0 -2.0664,0.40621 -2.828,1.13411 l -21.379,21.37895 -4.243,4.242 -1.8,1.8 -0.707,-0.707 c -0.65,-0.65 -1.4217,-1.1657 -2.271,-1.5175 -0.8494,-0.3519 -1.7597,-0.533 -2.679,-0.533 -0.9193,0 -1.8296,0.1811 -2.6789,0.533 -0.8493,0.3518 -1.6211,0.8675 -2.2711,1.5175 l -3.957,3.957 c -2.7732,2.7673 -6.40283,4.5123 -10.29597,4.95 -0.1873,0.0205 -0.36501,0.0934 -0.51268,0.2104 -0.14767,0.117 -0.25928,0.2733 -0.32199,0.4509 -0.0627,0.1777 -0.07394,0.3695 -0.03243,0.5532 0.04152,0.1838 0.13411,0.3521 0.2671,0.4855 L 15.728,53.9289 c 0.1399,0.1392 0.3176,0.2341 0.511,0.273 1.2395,0.2504 2.5216,0.1917 3.733,-0.171 -0.3503,1.1547 -0.4475,2.3714 -0.285,3.567 0.0292,0.2173 0.129,0.419 0.284,0.574 l 3.535,3.535 c 0.1335,0.133 0.3018,0.2256 0.4855,0.2671 0.1838,0.0416 0.3756,0.0303 0.5532,-0.0324 0.1777,-0.0627 0.334,-0.1743 0.451,-0.322 0.117,-0.1476 0.1899,-0.3254 0.2103,-0.5127 0.4368,-3.8941 2.1811,-7.5252 4.948,-10.3 l 3.958,-3.958 c 1.311,-1.3138 2.0472,-3.094 2.0472,-4.95 0,-1.8559 -0.7362,-3.6361 -2.0472,-4.95 z M 56.586,4.58595 C 56.9669,4.22211 57.4733,4.01909 58,4.01909 c 0.5267,0 1.0332,0.20302 1.414,0.56686 0.375,0.37505 0.5856,0.88367 0.5856,1.414 0,0.53032 -0.2106,1.03894 -0.5856,1.414 L 31.991,34.8369 29.163,32.0089 Z M 28.741,49.3999 c -2.6054,2.6112 -4.4096,5.913 -5.2,9.516 l -1.91,-1.91 c -0.1329,-1.5747 0.3236,-3.1427 1.281,-4.4 l 0.681,-0.9 c 0.1449,-0.2021 0.2092,-0.4509 0.1805,-0.6979 -0.0287,-0.2471 -0.1484,-0.4745 -0.3358,-0.638 -0.1874,-0.1635 -0.4289,-0.2513 -0.6775,-0.2464 -0.2487,0.005 -0.4865,0.1025 -0.6672,0.2733 l -0.278,0.278 c -0.6313,0.6352 -1.4034,1.1127 -2.2536,1.3939 -0.8503,0.2811 -1.7549,0.3579 -2.6404,0.2241 l -2.407,-2.407 c 2.0678,-0.4764 3.9597,-1.5254 5.459,-3.027 l 2.827,-2.83 c 0.1822,-0.1886 0.283,-0.4412 0.2807,-0.7034 -0.0023,-0.2622 -0.1074,-0.513 -0.2929,-0.6984 -0.1854,-0.1854 -0.4362,-0.2905 -0.6984,-0.2928 -0.2622,-0.0023 -0.5148,0.0985 -0.7034,0.2806 l -2.828,2.828 c -1.5551,1.5533 -3.6097,2.5062 -5.8,2.69 l -2.726,-2.733 c 2.1563,-0.2733 4.161,-1.2542 5.7,-2.789 0.1871,-0.188 0.2919,-0.4427 0.2912,-0.7079 -6e-4,-0.2653 -0.1066,-0.5194 -0.2947,-0.7066 -0.188,-0.1871 -0.4427,-0.2918 -0.7079,-0.2912 -0.2653,7e-4 -0.5195,0.1067 -0.7066,0.2947 -0.7875,0.789 -1.7348,1.4003 -2.7781,1.7928 -1.0433,0.3926 -2.1586,0.5574 -3.27087,0.4832 l -0.172,-0.011 -3.01,-3.01 c 3.60334,-0.7894 6.90537,-2.5938 9.51597,-5.2 l 3.25,-3.25 2.829,2.828 -2.121,2.121 c -0.0955,0.0923 -0.1717,0.2026 -0.2241,0.3246 -0.0524,0.122 -0.08,0.2533 -0.0811,0.386 -0.0012,0.1328 0.0241,0.2645 0.0744,0.3874 0.0503,0.1229 0.1245,0.2345 0.2184,0.3284 0.0939,0.0939 0.2056,0.1682 0.3285,0.2185 0.1229,0.0503 0.2545,0.0756 0.3873,0.0744 0.1328,-0.0012 0.264,-0.0287 0.386,-0.0812 0.122,-0.0524 0.2324,-0.1285 0.3246,-0.2241 l 2.121,-2.121 6.364,6.364 -2.122,2.121 c -0.1875,0.1877 -0.2928,0.4421 -0.2927,0.7074 10e-5,0.2653 0.1056,0.5196 0.2932,0.7071 0.1877,0.1876 0.4421,0.2928 0.7074,0.2927 0.2652,0 0.5196,-0.1055 0.7071,-0.2932 l 2.121,-2.121 2.122,2.121 z"
         fill="#000000"
         id="path24"
         style="fill:#5d78ff;fill-opacity:1" />
      <path
         d="m 56.05,32.666 c -0.9376,-0.9377 -2.2094,-1.4645 -3.5355,-1.4645 -1.326,0 -2.5978,0.5268 -3.5355,1.4645 l -3.535,3.534 -4.58,-4.58 -4.243,4.242 4.58,4.581 -3.535,3.535 c -0.9376,0.9376 -1.4644,2.2094 -1.4644,3.5355 0,1.326 0.5268,2.5978 1.4644,3.5355 l 5.656,5.657 c 0.1876,0.1874 0.4419,0.2928 0.707,0.2928 0.2652,0 0.5195,-0.1054 0.707,-0.2928 l 16.971,-16.97 c 0.1875,-0.1876 0.2928,-0.4419 0.2928,-0.707 0,-0.2652 -0.1053,-0.5195 -0.2928,-0.707 z m 2.122,7.778 -2.122,-2.122 c -0.1886,-0.1822 -0.4412,-0.283 -0.7034,-0.2807 -0.2622,0.0023 -0.513,0.1074 -0.6984,0.2929 -0.1854,0.1854 -0.2906,0.4362 -0.2928,0.6984 -0.0023,0.2622 0.0985,0.5148 0.2806,0.7034 l 2.122,2.122 -1.415,1.414 -2.121,-2.122 c -0.1886,-0.1822 -0.4412,-0.283 -0.7034,-0.2807 -0.2622,0.0023 -0.513,0.1074 -0.6984,0.2929 -0.1854,0.1854 -0.2906,0.4362 -0.2928,0.6984 -0.0023,0.2622 0.0985,0.5148 0.2806,0.7034 l 2.121,2.122 -1.414,1.414 -2.121,-2.122 c -0.0929,-0.0929 -0.2032,-0.1666 -0.3246,-0.2169 -0.1214,-0.0503 -0.2515,-0.0762 -0.3829,-0.0762 -0.1314,0 -0.2615,0.0259 -0.3829,0.0762 -0.1214,0.0503 -0.2317,0.124 -0.3246,0.2169 -0.0929,0.0929 -0.1666,0.2032 -0.2169,0.3246 -0.0502,0.1214 -0.0761,0.2515 -0.0761,0.3829 0,0.1314 0.0259,0.2615 0.0761,0.3829 0.0503,0.1214 0.124,0.2317 0.2169,0.3246 l 2.121,2.122 -1.415,1.414 -2.121,-2.121 c -0.1886,-0.1822 -0.4412,-0.283 -0.7034,-0.2807 -0.2622,0.0023 -0.513,0.1074 -0.6984,0.2929 -0.1854,0.1854 -0.2906,0.4362 -0.2928,0.6984 -0.0023,0.2622 0.0985,0.5148 0.2806,0.7034 l 2.121,2.121 -1.414,1.415 -2.122,-2.122 c -0.1886,-0.1822 -0.4412,-0.283 -0.7034,-0.2807 -0.2622,0.0023 -0.513,0.1074 -0.6984,0.2929 -0.1854,0.1854 -0.2906,0.4362 -0.2928,0.6984 -0.0023,0.2622 0.0985,0.5148 0.2806,0.7034 l 2.122,2.122 -1.415,1.414 -4.242,-4.243 15.557,-15.556 4.243,4.242 z"
         fill="#000000"
         id="path26"
         style="fill:#5d78ff;fill-opacity:1" />
    </g>
  </g>
</svg>
