<?xml version="1.0" encoding="UTF-8" standalone="no"?>
<!-- Generator: Adobe Illustrator 16.0.0, SVG Export Plug-In . SVG Version: 6.00 Build 0)  -->

<svg
   version="1.0"
   id="Layer_1"
   x="0px"
   y="0px"
   width="64"
   height="64"
   viewBox="0 0 64 64"
   enable-background="new 0 0 100 100"
   xml:space="preserve"
   sodipodi:docname="clean2.svg"
   inkscape:version="1.1.1 (50ffc5b540, 2022-01-11)"
   xmlns:inkscape="http://www.inkscape.org/namespaces/inkscape"
   xmlns:sodipodi="http://sodipodi.sourceforge.net/DTD/sodipodi-0.dtd"
   xmlns="http://www.w3.org/2000/svg"
   xmlns:svg="http://www.w3.org/2000/svg"><defs
   id="defs17" /><sodipodi:namedview
   id="namedview15"
   pagecolor="#ffffff"
   bordercolor="#666666"
   borderopacity="1.0"
   inkscape:pageshadow="2"
   inkscape:pageopacity="0.0"
   inkscape:pagecheckerboard="0"
   showgrid="false"
   inkscape:zoom="2"
   inkscape:cx="4.25"
   inkscape:cy="31.25"
   inkscape:window-width="1920"
   inkscape:window-height="972"
   inkscape:window-x="1920"
   inkscape:window-y="1107"
   inkscape:window-maximized="1"
   inkscape:current-layer="Group_1222" />
<path
   d="m 52,16 c 0,1.4688 -1.1976,2.6664 -2.6664,2.6664 -1.4688,0 -2.6672,-1.1976 -2.6672,-2.6664 0,-1.4688 1.1984,-2.6664 2.6672,-2.6664 C 50.8024,13.3336 52,14.5312 52,16 Z"
   id="path2"
   style="fill:#5d78ff;fill-opacity:1;stroke-width:0.8" />
<path
   d="M 37.3336,21.3336 40,26.6664 h 8 v 26.6664 c 0,2.9456 -2.388,5.3328 -5.3336,5.3328 H 0 V 64 h 42.6664 c 5.8904,0 10.6672,-4.776 10.6672,-10.6664 V 26.6664 h 8 L 64,21.3336 Z"
   id="path4"
   style="fill:#5d78ff;fill-opacity:1;stroke-width:0.8" />
<path
   d="M 42.6664,48 H 5.3336 V 34.6664 C 5.3336,33.1952 6.5272,32 8,32 c 1.4728,0 2.6664,1.1952 2.6664,2.6664 v 8 h 32 V 37.3336 H 16 v -2.6672 c 0,-3.476 -2.2336,-6.4056 -5.3336,-7.5104 V 21.3328 C 10.6664,18.3904 13.0584,16 16,16 H 42.6664 V 10.6664 H 16 c -5.8904,0 -10.6664,4.776 -10.6664,10.6664 V 27.156 C 2.2336,28.2576 0,31.1904 0,34.6664 v 18.6672 h 42.6664 z"
   id="path6"
   style="fill:#5d78ff;fill-opacity:1;stroke-width:0.8" />
<path
   d="M 58.6664,10.6664 C 58.6664,9.192 59.8592,8 61.3336,8 H 64 V 5.3336 h -2.6664 c -1.4744,0 -2.6672,-1.1928 -2.6672,-2.6664 V 0 H 56 v 2.6664 c 0,1.4712 -1.1952,2.6664 -2.6664,2.6664 H 50.6664 V 8 c 0,0 2.6672,0 2.6672,-0.0024 C 54.8048,8 55.9976,9.1928 56,10.6664 v 2.6664 h 2.6664 z"
   id="path8"
   style="fill:#5d78ff;fill-opacity:1;stroke-width:0.8" />
<path
   d="m 48,4 c 0,2.208 -1.7888,4 -4,4 -2.2032,0 -4,-1.792 -4,-4 0,-2.208 1.7968,-4 4,-4 2.2112,0 4,1.792 4,4 z"
   id="path10"
   style="fill:#5d78ff;fill-opacity:1;stroke-width:0.8" />
<path
   d="M 34.6664,5.3336 C 34.6664,6.8016 33.4688,8 32,8 30.5312,8 29.3336,6.8016 29.3336,5.3336 c 0,-1.468 1.1984,-2.6664 2.6664,-2.6664 1.468,0 2.6664,1.1976 2.6664,2.6664 z"
   id="path12"
   style="fill:#5d78ff;fill-opacity:1;stroke-width:0.8" />
<g
   id="Group_1234"
   data-name="Group 1234"
   transform="translate(-79.215361,-64.720673)"><g
     id="Group_1223"
     data-name="Group 1223"
     transform="translate(0,0.005)"><g
       id="Group_1222"
       data-name="Group 1222" /></g></g></svg>
