<?xml version="1.0" encoding="UTF-8" standalone="no"?>
<svg
   width="64"
   height="64"
   viewBox="0 0 64 64"
   fill="none"
   version="1.1"
   id="svg20"
   sodipodi:docname="deploy.svg"
   inkscape:version="1.1.1 (50ffc5b540, 2022-01-11)"
   xmlns:inkscape="http://www.inkscape.org/namespaces/inkscape"
   xmlns:sodipodi="http://sodipodi.sourceforge.net/DTD/sodipodi-0.dtd"
   xmlns="http://www.w3.org/2000/svg"
   xmlns:svg="http://www.w3.org/2000/svg">
  <defs
     id="defs24" />
  <sodipodi:namedview
     id="namedview22"
     pagecolor="#ffffff"
     bordercolor="#666666"
     borderopacity="1.0"
     inkscape:pageshadow="2"
     inkscape:pageopacity="0.0"
     inkscape:pagecheckerboard="0"
     showgrid="false"
     inkscape:zoom="4.4194174"
     inkscape:cx="-14.36841"
     inkscape:cy="30.886424"
     inkscape:window-width="1920"
     inkscape:window-height="972"
     inkscape:window-x="1920"
     inkscape:window-y="1107"
     inkscape:window-maximized="1"
     inkscape:current-layer="Group_1215" />
  <path
     d="M59.9996 57C59.3807 57.0017 58.7774 57.1948 58.2726 57.5529C57.7677 57.9109 57.386 58.4164 57.1796 59H42.9996V54H46.0696C46.6399 54.9632 47.4634 55.7516 48.4506 56.2794C49.4378 56.8072 50.5509 57.0541 51.6686 56.9933C52.7864 56.9324 53.866 56.5662 54.7901 55.9344C55.7142 55.3026 56.4473 54.4294 56.9096 53.41C56.978 53.2578 57.0073 53.091 56.9947 52.9247C56.9822 52.7584 56.9282 52.5978 56.8378 52.4577C56.7473 52.3175 56.6233 52.2023 56.4769 52.1223C56.3305 52.0424 56.1664 52.0003 55.9996 52H53.3796C53.1144 52 52.8601 51.8946 52.6725 51.7071C52.485 51.5195 52.3796 51.2652 52.3796 51C52.3796 50.7347 52.485 50.4804 52.6725 50.2928C52.8601 50.1053 53.1144 50 53.3796 50H55.9996C56.1664 49.9996 56.3305 49.9575 56.4769 49.8776C56.6233 49.7976 56.7473 49.6824 56.8378 49.5422C56.9282 49.4021 56.9822 49.2415 56.9947 49.0752C57.0073 48.9089 56.978 48.7421 56.9096 48.59C56.4473 47.5705 55.7142 46.6973 54.7901 46.0655C53.866 45.4337 52.7864 45.0675 51.6686 45.0066C50.5509 44.9458 49.4378 45.1927 48.4506 45.7205C47.4634 46.2483 46.6399 47.0367 46.0696 48H32.9996V45.4599C33.1395 45.5349 33.2703 45.6254 33.3896 45.7299C33.5741 45.9026 33.817 45.9991 34.0696 46H34.2496C35.9101 45.696 37.4878 45.0452 38.8796 44.09C39.008 44.001 39.1138 43.8832 39.1885 43.746C39.2631 43.6088 39.3046 43.4561 39.3096 43.2999C39.3223 42.7735 39.5371 42.2721 39.9095 41.8998C40.2818 41.5274 40.7832 41.3126 41.3096 41.2999C41.4658 41.295 41.6185 41.2535 41.7557 41.1788C41.8929 41.1041 42.0107 40.9983 42.0996 40.8699C43.05 39.4803 43.6974 37.9062 43.9996 36.25C44.0277 36.097 44.0197 35.9397 43.9763 35.7904C43.9329 35.6411 43.8553 35.504 43.7496 35.3899C43.6419 35.2732 43.551 35.1419 43.4796 35H46.9996C49.6799 34.9893 52.2641 34.0003 54.2668 32.2189C56.2694 30.4375 57.5528 27.9861 57.8757 25.3253C58.1986 22.6645 57.5389 19.9774 56.0206 17.7686C54.5022 15.5598 52.2296 13.9815 49.6296 13.33C49.0461 11.2237 47.7885 9.36656 46.0494 8.04279C44.3102 6.71901 42.1853 6.00147 39.9996 5.99995C39.1521 5.99937 38.3082 6.11032 37.4896 6.32995C35.9023 4.15369 33.6781 2.52424 31.1246 1.66685C28.571 0.809461 25.8142 0.766464 23.2351 1.5438C20.656 2.32114 18.3821 3.88043 16.7277 6.00614C15.0732 8.13184 14.12 10.719 13.9996 13.41C11.4394 14.1292 9.22634 15.7517 7.7702 17.977C6.31407 20.2023 5.71342 22.8798 6.07943 25.5139C6.44545 28.148 7.75334 30.5603 9.76103 32.3043C11.7687 34.0483 14.3402 35.006 16.9996 35H20.5396C20.4683 35.1419 20.3774 35.2732 20.2696 35.3899C20.164 35.504 20.0864 35.6411 20.043 35.7904C19.9996 35.9397 19.9916 36.097 20.0196 36.25C20.3236 37.9104 20.9744 39.4881 21.9296 40.88C22.0186 41.0083 22.1364 41.1141 22.2736 41.1888C22.4108 41.2635 22.5635 41.305 22.7196 41.31C23.2461 41.3226 23.7474 41.5374 24.1198 41.9098C24.4922 42.2821 24.7069 42.7835 24.7196 43.31C24.7246 43.4661 24.7661 43.6188 24.8408 43.756C24.9155 43.8932 25.0212 44.011 25.1496 44.0999C26.5333 45.0478 28.1004 45.695 29.7496 46C29.9026 46.028 30.0599 46.02 30.2092 45.9766C30.3585 45.9332 30.4956 45.8556 30.6096 45.75C30.729 45.6454 30.8598 45.5549 30.9996 45.4799V48H17.9296C17.3594 47.0367 16.5359 46.2483 15.5487 45.7205C14.5615 45.1927 13.4484 44.9458 12.3307 45.0066C11.2129 45.0675 10.1332 45.4337 9.20915 46.0655C8.28507 46.6973 7.55197 47.5705 7.08964 48.59C7.02125 48.7421 6.99201 48.9089 7.00456 49.0752C7.01711 49.2415 7.07107 49.4021 7.16151 49.5422C7.25196 49.6824 7.37602 49.7976 7.52241 49.8776C7.66879 49.9575 7.83285 49.9996 7.99964 50H10.6196C10.8849 50 11.1392 50.1053 11.3267 50.2928C11.5143 50.4804 11.6196 50.7347 11.6196 51C11.6196 51.2652 11.5143 51.5195 11.3267 51.7071C11.1392 51.8946 10.8849 52 10.6196 52H7.99964C7.83285 52.0003 7.66879 52.0424 7.52241 52.1223C7.37602 52.2023 7.25196 52.3175 7.16151 52.4577C7.07107 52.5978 7.01711 52.7584 7.00456 52.9247C6.99201 53.091 7.02125 53.2578 7.08964 53.41C7.55197 54.4294 8.28507 55.3026 9.20915 55.9344C10.1332 56.5662 11.2129 56.9324 12.3307 56.9933C13.4484 57.0541 14.5615 56.8072 15.5487 56.2794C16.5359 55.7516 17.3594 54.9632 17.9296 54H20.9996V59H6.81964C6.58374 58.3327 6.11957 57.7704 5.50916 57.4123C4.89875 57.0542 4.1814 56.9235 3.48391 57.0432C2.78641 57.1628 2.15367 57.5252 1.69753 58.0663C1.24139 58.6074 0.991211 59.2923 0.991211 60C0.991211 60.7076 1.24139 61.3925 1.69753 61.9336C2.15367 62.4747 2.78641 62.8371 3.48391 62.9567C4.1814 63.0764 4.89875 62.9457 5.50916 62.5876C6.11957 62.2295 6.58374 61.6672 6.81964 61H21.9996C22.2649 61 22.5192 60.8946 22.7067 60.7071C22.8943 60.5195 22.9996 60.2652 22.9996 60V54H40.9996V60C40.9996 60.2652 41.105 60.5195 41.2925 60.7071C41.4801 60.8946 41.7344 61 41.9996 61H57.1796C57.3631 61.5188 57.6857 61.9772 58.1123 62.325C58.5388 62.6728 59.0528 62.8966 59.598 62.9718C60.1432 63.047 60.6986 62.9708 61.2033 62.7515C61.7081 62.5323 62.1429 62.1784 62.46 61.7285C62.7771 61.2787 62.9644 60.7504 63.0013 60.2013C63.0382 59.6521 62.9234 59.1034 62.6694 58.6152C62.4153 58.127 62.0319 57.7181 61.561 57.4332C61.0902 57.1483 60.55 56.9984 59.9996 57V57ZM3.99964 61C3.80186 61 3.60852 60.9413 3.44407 60.8314C3.27962 60.7215 3.15145 60.5654 3.07576 60.3826C3.00007 60.1999 2.98027 59.9988 3.01885 59.8049C3.05744 59.6109 3.15268 59.4327 3.29253 59.2928C3.43238 59.153 3.61057 59.0578 3.80455 59.0192C3.99853 58.9806 4.1996 59.0004 4.38232 59.0761C4.56505 59.1518 4.72123 59.2799 4.83111 59.4444C4.94099 59.6088 4.99964 59.8022 4.99964 60C4.99964 60.2652 4.89428 60.5195 4.70674 60.7071C4.51921 60.8946 4.26485 61 3.99964 61ZM19.9996 31.75C19.9716 31.9029 19.9796 32.0602 20.023 32.2095C20.0664 32.3588 20.144 32.4959 20.2496 32.61C20.3574 32.7267 20.4483 32.858 20.5196 33H16.9996C16.3782 32.9977 15.7585 32.934 15.1496 32.81C15.2196 32.3 15.2996 31.8099 15.4096 31.2999L13.4096 30.87C13.3196 31.29 13.2396 31.72 13.1796 32.15C11.4538 31.3551 10.0237 30.0344 9.09437 28.3771C8.16503 26.7197 7.78408 24.8108 8.0061 22.9237C8.22811 21.0365 9.04169 19.2681 10.3303 17.8717C11.6189 16.4753 13.3164 15.5225 15.1796 15.15C15.4089 15.1032 15.6145 14.9775 15.7607 14.7948C15.9069 14.6121 15.9844 14.3839 15.9796 14.15C15.9841 14.0834 15.9841 14.0165 15.9796 13.95C15.9769 11.5712 16.7453 9.25568 18.1697 7.35054C19.5941 5.44541 21.5977 4.05333 23.88 3.38305C26.1624 2.71276 28.6005 2.80039 30.8289 3.63278C33.0572 4.46517 34.9557 5.99748 36.2396 7.99995C36.3616 8.18815 36.5432 8.32991 36.7554 8.40246C36.9676 8.475 37.198 8.47412 37.4096 8.39995C38.2448 8.12371 39.1201 7.98853 39.9996 7.99995C41.838 8.00045 43.62 8.63406 45.0461 9.79419C46.4721 10.9543 47.4551 12.5702 47.8296 14.37C47.8702 14.5648 47.968 14.7431 48.1105 14.8821C48.2531 15.0211 48.4338 15.1143 48.6296 15.15C50.5022 15.5011 52.2149 16.4375 53.5214 17.8242C54.8278 19.2109 55.6605 20.9764 55.8995 22.8665C56.1385 24.7566 55.7716 26.6738 54.8516 28.3421C53.9315 30.0104 52.5058 31.3436 50.7796 32.15C50.7196 31.72 50.6396 31.29 50.5496 30.87L48.5496 31.2999C48.6596 31.7999 48.7396 32.3 48.8096 32.81C48.2138 32.9314 47.6077 32.9951 46.9996 33H43.4596C43.531 32.858 43.6219 32.7267 43.7296 32.61C43.8353 32.4959 43.9129 32.3588 43.9563 32.2095C43.9997 32.0602 44.0077 31.9029 43.9796 31.75C43.6757 30.0895 43.0249 28.5118 42.0696 27.12C41.9807 26.9916 41.8629 26.8858 41.7257 26.8111C41.5885 26.7364 41.4357 26.6949 41.2796 26.69C40.7532 26.6773 40.2518 26.4625 39.8795 26.0901C39.5071 25.7178 39.2923 25.2164 39.2796 24.69C39.2746 24.5338 39.2331 24.3811 39.1585 24.2439C39.0838 24.1067 38.978 23.9889 38.8496 23.9C37.4659 22.9521 35.8989 22.3049 34.2496 22C34.0967 21.9719 33.9394 21.9799 33.7901 22.0233C33.6408 22.0667 33.5037 22.1443 33.3896 22.25C33.0079 22.5929 32.5128 22.7826 31.9996 22.7826C31.4865 22.7826 30.9914 22.5929 30.6096 22.25C30.4956 22.1443 30.3585 22.0667 30.2092 22.0233C30.0599 21.9799 29.9026 21.9719 29.7496 22C28.0891 22.3039 26.5114 22.9547 25.1196 23.91C24.9912 23.9989 24.8855 24.1167 24.8108 24.2539C24.7361 24.3911 24.6946 24.5438 24.6896 24.7C24.6769 25.2264 24.4622 25.7278 24.0898 26.1001C23.7174 26.4725 23.2161 26.6873 22.6896 26.7C22.5335 26.7049 22.3808 26.7464 22.2436 26.8211C22.1064 26.8958 21.9886 27.0016 21.8996 27.1299C20.9492 28.5196 20.3019 30.0937 19.9996 31.75V31.75ZM29.6496 43.9199C28.5888 43.6678 27.5757 43.2457 26.6496 42.6699C26.5142 41.8437 26.1228 41.0808 25.5308 40.4888C24.9388 39.8968 24.1759 39.5054 23.3496 39.3699C22.7739 38.4439 22.3518 37.4308 22.0996 36.3699C22.5865 35.6906 22.8483 34.8758 22.8483 34.04C22.8483 33.2041 22.5865 32.3893 22.0996 31.7099C22.3518 30.6491 22.7739 29.636 23.3496 28.7099C24.1759 28.5745 24.9388 28.1831 25.5308 27.5911C26.1228 26.9991 26.5142 26.2362 26.6496 25.41C27.5757 24.8342 28.5888 24.4121 29.6496 24.16C30.3361 24.629 31.1482 24.88 31.9796 24.88C32.8111 24.88 33.6232 24.629 34.3096 24.16C35.3705 24.4121 36.3836 24.8342 37.3096 25.41C37.4451 26.2362 37.8365 26.9991 38.4285 27.5911C39.0205 28.1831 39.7834 28.5745 40.6096 28.7099C41.1854 29.636 41.6075 30.6491 41.8596 31.7099C41.3728 32.3893 41.111 33.2041 41.111 34.04C41.111 34.8758 41.3728 35.6906 41.8596 36.3699C41.6075 37.4308 41.1854 38.4439 40.6096 39.3699C39.7834 39.5054 39.0205 39.8968 38.4285 40.4888C37.8365 41.0808 37.4451 41.8437 37.3096 42.6699C36.3836 43.2457 35.3705 43.6678 34.3096 43.9199C33.6303 43.4331 32.8154 43.1713 31.9796 43.1713C31.1438 43.1713 30.329 43.4331 29.6496 43.9199V43.9199ZM17.3196 52C17.1273 52.0004 16.9391 52.0562 16.7777 52.1609C16.6163 52.2655 16.4885 52.4145 16.4096 52.59C16.0836 53.3106 15.5561 53.9215 14.8908 54.3491C14.2254 54.7767 13.4506 55.0027 12.6596 55C11.6828 54.9909 10.7405 54.6367 9.99964 54H10.6596C11.4553 54 12.2183 53.6839 12.781 53.1213C13.3436 52.5587 13.6596 51.7956 13.6596 51C13.6596 50.2043 13.3436 49.4412 12.781 48.8786C12.2183 48.316 11.4553 48 10.6596 48H9.99964C10.751 47.3543 11.709 46.9995 12.6996 47C13.4906 46.9972 14.2654 47.2232 14.9308 47.6508C15.5961 48.0784 16.1236 48.6893 16.4496 49.41C16.5285 49.5854 16.6563 49.7344 16.8177 49.839C16.9791 49.9437 17.1673 49.9995 17.3596 50H46.6796C46.872 49.9995 47.0602 49.9437 47.2216 49.839C47.383 49.7344 47.5108 49.5854 47.5896 49.41C47.9156 48.6893 48.4431 48.0784 49.1085 47.6508C49.7739 47.2232 50.5487 46.9972 51.3396 47C52.3165 47.009 53.2587 47.3632 53.9996 48H53.3396C52.544 48 51.7809 48.316 51.2183 48.8786C50.6557 49.4412 50.3396 50.2043 50.3396 51C50.3396 51.7956 50.6557 52.5587 51.2183 53.1213C51.7809 53.6839 52.544 54 53.3396 54H53.9996C53.2483 54.6456 52.2903 55.0004 51.2996 55C50.5087 55.0027 49.7339 54.7767 49.0685 54.3491C48.4031 53.9215 47.8756 53.3106 47.5496 52.59C47.4708 52.4145 47.343 52.2655 47.1816 52.1609C47.0202 52.0562 46.832 52.0004 46.6396 52H17.3196ZM59.9996 61C59.8019 61 59.6085 60.9413 59.4441 60.8314C59.2796 60.7215 59.1514 60.5654 59.0758 60.3826C59.0001 60.1999 58.9803 59.9988 59.0189 59.8049C59.0574 59.6109 59.1527 59.4327 59.2925 59.2928C59.4324 59.153 59.6106 59.0578 59.8045 59.0192C59.9985 58.9806 60.1996 59.0004 60.3823 59.0761C60.565 59.1518 60.7212 59.2799 60.8311 59.4444C60.941 59.6088 60.9996 59.8022 60.9996 60C60.9996 60.2652 60.8943 60.5195 60.7067 60.7071C60.5192 60.8946 60.2649 61 59.9996 61Z"
     fill="black"
     id="path2"
     style="fill:#5d78ff;fill-opacity:1" />
  <path
     d="M27 5C24.6131 5 22.3239 5.94821 20.636 7.63604C18.9482 9.32387 18 11.6131 18 14H20C20 12.1435 20.7375 10.363 22.0503 9.05025C23.363 7.7375 25.1435 7 27 7V5Z"
     fill="black"
     id="path4"
     style="fill:#5d78ff;fill-opacity:1" />
  <path
     d="M40 34C40 32.4178 39.5308 30.871 38.6518 29.5554C37.7727 28.2399 36.5233 27.2145 35.0615 26.609C33.5997 26.0035 31.9911 25.845 30.4393 26.1537C28.8874 26.4624 27.462 27.2243 26.3431 28.3431C25.2243 29.462 24.4624 30.8874 24.1537 32.4393C23.845 33.9911 24.0035 35.5997 24.609 37.0615C25.2145 38.5233 26.2399 39.7727 27.5554 40.6518C28.871 41.5308 30.4178 42 32 42C34.1217 42 36.1566 41.1571 37.6569 39.6569C39.1571 38.1566 40 36.1217 40 34ZM26 34C26 32.8133 26.3519 31.6533 27.0112 30.6666C27.6705 29.6799 28.6075 28.9109 29.7039 28.4567C30.8003 28.0026 32.0067 27.8838 33.1705 28.1153C34.3344 28.3468 35.4035 28.9182 36.2426 29.7574C37.0818 30.5965 37.6532 31.6656 37.8847 32.8295C38.1162 33.9933 37.9974 35.1997 37.5433 36.2961C37.0892 37.3925 36.3201 38.3295 35.3334 38.9888C34.3467 39.6481 33.1867 40 32 40C30.4087 40 28.8826 39.3679 27.7574 38.2426C26.6321 37.1174 26 35.5913 26 34Z"
     fill="black"
     id="path6"
     style="fill:#5d78ff;fill-opacity:1" />
  <path
     d="M33 31H31V33H33V31Z"
     fill="black"
     id="path8"
     style="fill:#5d78ff;fill-opacity:1" />
  <path
     d="M33 35H31V37H33V35Z"
     fill="black"
     id="path10"
     style="fill:#5d78ff;fill-opacity:1" />
  <path
     d="M40.26 17.89C38.5479 17.0524 36.7161 16.4856 34.83 16.21L34.54 18.21C36.2242 18.4577 37.8601 18.9637 39.39 19.71L40.26 17.89Z"
     fill="black"
     id="path12"
     style="fill:#5d78ff;fill-opacity:1" />
  <path
     d="M24.5897 19.6899C26.1249 18.9479 27.7634 18.4422 29.4497 18.1899L29.1497 16.1899C27.2662 16.4764 25.436 17.0427 23.7197 17.8699L24.5897 19.6899Z"
     fill="black"
     id="path14"
     style="fill:#5d78ff;fill-opacity:1" />
  <path
     d="M48.4897 25.5501C47.5548 23.901 46.3785 22.401 44.9996 21.1001L43.6396 22.5601C44.8863 23.7287 45.9513 25.0769 46.7996 26.5601L48.4897 25.5501Z"
     fill="black"
     id="path16"
     style="fill:#5d78ff;fill-opacity:1" />
  <path
     d="M15.5 25.5699L17.24 26.5699C18.0883 25.0866 19.1534 23.7384 20.4 22.5699L19 21.1099C17.6177 22.4139 16.4381 23.9172 15.5 25.5699V25.5699Z"
     fill="black"
     id="path18"
     style="fill:#5d78ff;fill-opacity:1" />
  <g
     id="Group_1221"
     data-name="Group 1221"
     transform="translate(-113.66265,-38.224597)">
    <g
       id="Group_1216"
       data-name="Group 1216"
       transform="translate(0,5.356)">
      <g
         id="Group_1215"
         data-name="Group 1215" />
    </g>
  </g>
</svg>
