<?xml version="1.0" encoding="UTF-8" standalone="no"?>
<!-- Generator: Adobe Illustrator 23.0.3, SVG Export Plug-In . SVG Version: 6.00 Build 0)  -->

<svg
   version="1.1"
   id="Icons"
   x="0px"
   y="0px"
   viewBox="0 0 70.235291 70"
   xml:space="preserve"
   sodipodi:docname="mobile.svg"
   width="70.235291"
   height="70"
   inkscape:version="1.1.1 (50ffc5b540, 2022-01-11)"
   xmlns:inkscape="http://www.inkscape.org/namespaces/inkscape"
   xmlns:sodipodi="http://sodipodi.sourceforge.net/DTD/sodipodi-0.dtd"
   xmlns="http://www.w3.org/2000/svg"
   xmlns:svg="http://www.w3.org/2000/svg"><defs
   id="defs21" /><sodipodi:namedview
   id="namedview19"
   pagecolor="#ffffff"
   bordercolor="#666666"
   borderopacity="1.0"
   inkscape:pageshadow="2"
   inkscape:pageopacity="0.0"
   inkscape:pagecheckerboard="0"
   showgrid="false"
   inkscape:zoom="0.78125"
   inkscape:cx="-154.24"
   inkscape:cy="-141.44"
   inkscape:window-width="1920"
   inkscape:window-height="972"
   inkscape:window-x="1920"
   inkscape:window-y="1107"
   inkscape:window-maximized="1"
   inkscape:current-layer="Icons" />
<style
   type="text/css"
   id="style2">
	.st0{fill:none;stroke:#000000;stroke-width:2;stroke-linecap:round;stroke-linejoin:round;stroke-miterlimit:10;}
	.st1{fill:none;stroke:#000000;stroke-width:2;stroke-linejoin:round;stroke-miterlimit:10;}
</style>
<path
   class="st0"
   d="m 43.808895,52.39178 v 9.93816 c 0,2.73299 -2.642652,4.96908 -5.872559,4.96908 H 8.5735409 c -3.229907,0 -5.872559,-2.23609 -5.872559,-4.96908 V 7.6700619 c 0,-2.732994 2.642652,-4.96908 5.872559,-4.96908 H 37.936336 c 3.229907,0 5.872559,2.236086 5.872559,4.96908 v 4.9690791"
   id="path4"
   style="stroke:#5d78ff;stroke-opacity:1" />
<line
   class="st0"
   x1="2.7009828"
   y1="12.639141"
   x2="43.808895"
   y2="12.639141"
   id="line6"
   style="stroke:#5d78ff;stroke-opacity:1" />
<line
   class="st0"
   x1="2.7009828"
   y1="52.391777"
   x2="43.808895"
   y2="52.391777"
   id="line8"
   style="stroke:#5d78ff;stroke-opacity:1" />
<line
   class="st0"
   x1="20.318663"
   y1="59.845398"
   x2="26.191221"
   y2="59.845398"
   id="line10"
   style="stroke:#5d78ff;stroke-opacity:1" />
<polyline
   class="st0"
   points="14,12 11,15 14,18 "
   id="polyline12"
   transform="matrix(2.9362795,0,0,2.4845399,-11.980415,-4.7526381)"
   style="stroke:#5d78ff;stroke-opacity:1" />
<polyline
   class="st0"
   points="24,12 27,15 24,18 "
   id="polyline14"
   transform="matrix(2.9362795,0,0,2.4845399,-11.980415,-4.7526381)"
   style="stroke:#5d78ff;stroke-opacity:1" />
<line
   class="st0"
   x1="49.681446"
   y1="22.577301"
   x2="37.936337"
   y2="42.453621"
   id="line16"
   style="stroke:#5d78ff;stroke-opacity:1" />
</svg>
