<?xml version="1.0" encoding="UTF-8" standalone="no"?>
<!-- Created with Inkscape (http://www.inkscape.org/) -->

<svg
   width="18.520834mm"
   height="18.520834mm"
   viewBox="0 0 18.520834 18.520834"
   version="1.1"
   id="svg5"
   inkscape:version="1.1.1 (50ffc5b540, 2022-01-11)"
   sodipodi:docname="consultancy.svg"
   xmlns:inkscape="http://www.inkscape.org/namespaces/inkscape"
   xmlns:sodipodi="http://sodipodi.sourceforge.net/DTD/sodipodi-0.dtd"
   xmlns="http://www.w3.org/2000/svg"
   xmlns:svg="http://www.w3.org/2000/svg">
  <sodipodi:namedview
     id="namedview7"
     pagecolor="#ffffff"
     bordercolor="#666666"
     borderopacity="1.0"
     inkscape:pageshadow="2"
     inkscape:pageopacity="0.0"
     inkscape:pagecheckerboard="0"
     inkscape:document-units="mm"
     showgrid="false"
     inkscape:zoom="2.8507295"
     inkscape:cx="37.008071"
     inkscape:cy="37.008071"
     inkscape:window-width="1920"
     inkscape:window-height="972"
     inkscape:window-x="1920"
     inkscape:window-y="1107"
     inkscape:window-maximized="1"
     inkscape:current-layer="g832" />
  <defs
     id="defs2" />
  <g
     inkscape:label="Layer 1"
     inkscape:groupmode="layer"
     id="layer1"
     transform="translate(-90.935417,-145.50917)">
    <g
       id="g832"
       transform="matrix(0.26458333,0,0,0.26458333,13.949918,68.515439)">
      <g
         id="g830"
         transform="matrix(0.14111129,0,0,0.14112899,289.84873,289.87091)">
        <path
           d="m 288,280 h -64 a 8,8 0 0 0 0,16 h 64 a 8,8 0 0 0 0,-16 z"
           fill="#004fac"
           id="path826"
           style="fill:#5d78ff;fill-opacity:1" />
        <path
           d="M 384,40 A 120.523,120.523 0 0 0 335.14,50.37 127.541,127.541 0 0 0 240,8 C 173.62,8 118.73,58.98 112.58,123.84 A 80.021,80.021 0 1 0 88,280 h 72.34 c -0.22,2.64 -0.34,5.31 -0.34,8 a 95.626,95.626 0 0 0 48,83.16 V 392 h -8 a 8,8 0 0 0 -8,8 v 24 a 8,8 0 0 0 8,8 h 8 v 20 a 28.043,28.043 0 0 0 24,27.71 V 480 a 24,24 0 0 0 48,0 v -0.29 A 28.043,28.043 0 0 0 304,452 v -20 h 8 a 8,8 0 0 0 8,-8 v -24 a 8,8 0 0 0 -8,-8 h -8 V 371.16 A 95.626,95.626 0 0 0 352,288 c 0,-2.69 -0.12,-5.36 -0.34,-8 H 384 A 120,120 0 0 0 384,40 Z M 256,488 a 8.011,8.011 0 0 1 -8,-8 h 16 a 8.011,8.011 0 0 1 -8,8 z m 32,-36 a 12.01,12.01 0 0 1 -12,12 h -40 a 12.01,12.01 0 0 1 -12,-12 v -20 h 64 z m 16,-36 h -96 v -8 h 96 z M 292.36,359.28 A 7.984,7.984 0 0 0 288,366.4 V 392 h -8 v -80 a 8,8 0 0 0 -16,0 v 80 h -16 v -80 a 8,8 0 0 0 -16,0 v 80 h -8 v -25.6 a 7.984,7.984 0 0 0 -4.36,-7.12 80,80 0 1 1 72.72,0 z M 443.42,245.36 A 103.337,103.337 0 0 1 384,264 h -35.04 a 96.011,96.011 0 0 0 -185.92,0 H 88 a 64,64 0 1 1 28.44,-121.34 8,8 0 0 0 11.57,-7.13 C 128.25,74.03 178.49,24 240,24 a 111.627,111.627 0 0 1 86.85,41.29 8,8 0 0 0 9.84,2.06 A 102.911,102.911 0 0 1 384,56 104,104 0 0 1 443.42,245.36 Z"
           fill="#004fac"
           id="path828"
           style="fill:#5d78ff;fill-opacity:1" />
      </g>
    </g>
  </g>
</svg>
