<svg
   width="6.3499999mm"
   height="6.3499999mm"
   viewBox="0 0 6.3499999 6.3499999"
   version="1.1"
   id="svg5"
   inkscape:version="1.1.2 (b8e25be833, 2022-02-05)"
   sodipodi:docname="facebook_white.svg"
   xmlns:inkscape="http://www.inkscape.org/namespaces/inkscape"
   xmlns:sodipodi="http://sodipodi.sourceforge.net/DTD/sodipodi-0.dtd"
   xmlns="http://www.w3.org/2000/svg"
   xmlns:svg="http://www.w3.org/2000/svg">
  <sodipodi:namedview
     id="namedview7"
     pagecolor="#ffffff"
     bordercolor="#666666"
     borderopacity="1.0"
     inkscape:pageshadow="2"
     inkscape:pageopacity="0.0"
     inkscape:pagecheckerboard="0"
     inkscape:document-units="mm"
     showgrid="false"
     inkscape:zoom="5.701459"
     inkscape:cx="-7.8050197"
     inkscape:cy="32.710925"
     inkscape:window-width="1920"
     inkscape:window-height="972"
     inkscape:window-x="1920"
     inkscape:window-y="1107"
     inkscape:window-maximized="1"
     inkscape:current-layer="layer1" />
  <defs
     id="defs2" />
  <g
     inkscape:label="Layer 1"
     inkscape:groupmode="layer"
     id="layer1"
     transform="translate(-130.36281,-104.14567)">
    <path
       d="m 130.36281,104.72294 v 5.19545 c 0,0.3157 0.26158,0.57728 0.57727,0.57728 h 5.19546 c 0.3157,0 0.57727,-0.26158 0.57727,-0.57728 v -5.19545 c 0,-0.3157 -0.26157,-0.57727 -0.57727,-0.57727 h -5.19546 c -0.31569,0 -0.57727,0.26157 -0.57727,0.57727 z m 5.77273,0 v 5.19545 h -1.4973 v -1.94829 h 0.74865 l 0.10824,-0.86591 h -0.85689 v -0.55923 c 0,-0.25256 0.0631,-0.42394 0.42393,-0.42394 h 0.46904 v -0.78473 c -0.0794,-0.0108 -0.35719,-0.0271 -0.67649,-0.0271 -0.66567,0 -1.11847,0.40048 -1.11847,1.14553 v 0.64943 h -0.75767 v 0.86591 h 0.75767 v 1.94829 h -2.79617 v -5.19545 z"
       id="path1085"
       style="stroke-width:0.0180398;fill:#ffffff" />
  </g>
</svg>
