<svg
   width="6.3503098mm"
   height="5.1592798mm"
   viewBox="0 0 6.3503098 5.1592799"
   version="1.1"
   id="svg5"
   inkscape:version="1.1.2 (b8e25be833, 2022-02-05)"
   sodipodi:docname="twitter_white.svg"
   xmlns:inkscape="http://www.inkscape.org/namespaces/inkscape"
   xmlns:sodipodi="http://sodipodi.sourceforge.net/DTD/sodipodi-0.dtd"
   xmlns="http://www.w3.org/2000/svg"
   xmlns:svg="http://www.w3.org/2000/svg">
  <sodipodi:namedview
     id="namedview7"
     pagecolor="#ffffff"
     bordercolor="#666666"
     borderopacity="1.0"
     inkscape:pageshadow="2"
     inkscape:pageopacity="0.0"
     inkscape:pagecheckerboard="0"
     inkscape:document-units="mm"
     showgrid="false"
     inkscape:zoom="5.701459"
     inkscape:cx="-38.14813"
     inkscape:cy="32.360138"
     inkscape:window-width="1920"
     inkscape:window-height="972"
     inkscape:window-x="1920"
     inkscape:window-y="1107"
     inkscape:window-maximized="1"
     inkscape:current-layer="layer1" />
  <defs
     id="defs2" />
  <g
     inkscape:label="Layer 1"
     inkscape:groupmode="layer"
     id="layer1"
     transform="translate(-125.63688,-104.07795)">
    <path
       d="m 131.98686,104.68815 c -0.23316,0.10418 -0.48452,0.17363 -0.74745,0.20505 0.26955,-0.1604 0.47625,-0.41672 0.57216,-0.72099 -0.25135,0.14883 -0.53082,0.25797 -0.82682,0.31585 -0.23812,-0.25136 -0.57712,-0.41011 -0.95084,-0.41011 -0.71934,0 -1.30308,0.58374 -1.30308,1.30307 0,0.10253 0.0116,0.20175 0.0331,0.29601 -1.08314,-0.0546 -2.04226,-0.57216 -2.68553,-1.36095 -0.11079,0.19182 -0.17528,0.41672 -0.17528,0.65484 0,0.45145 0.22985,0.84997 0.57877,1.08479 -0.21332,-0.007 -0.41506,-0.0661 -0.59035,-0.16371 v 0.0165 c 0,0.63169 0.44979,1.15755 1.04511,1.27661 -0.10914,0.0298 -0.2249,0.0463 -0.34396,0.0463 -0.0843,0 -0.16537,-0.008 -0.24474,-0.0232 0.16536,0.51759 0.64657,0.89463 1.21708,0.90455 -0.44648,0.34892 -1.00707,0.55728 -1.61726,0.55728 -0.10584,0 -0.20836,-0.007 -0.31089,-0.0182 0.57712,0.37041 1.26173,0.58539 1.9976,0.58539 2.39614,0 3.70583,-1.98438 3.70583,-3.70582 0,-0.0562 -0.002,-0.11245 -0.003,-0.16868 0.25466,-0.18355 0.47459,-0.41341 0.64988,-0.67468 z"
       id="path1039"
       style="fill:#ffffff;stroke-width:0.0165365" />
  </g>
</svg>
