<svg
   width="6.0324998mm"
   height="6.05896mm"
   viewBox="0 0 6.0324997 6.05896"
   version="1.1"
   id="svg5"
   inkscape:version="1.1.2 (b8e25be833, 2022-02-05)"
   sodipodi:docname="whatsapp_white.svg"
   xmlns:inkscape="http://www.inkscape.org/namespaces/inkscape"
   xmlns:sodipodi="http://sodipodi.sourceforge.net/DTD/sodipodi-0.dtd"
   xmlns="http://www.w3.org/2000/svg"
   xmlns:svg="http://www.w3.org/2000/svg">
  <sodipodi:namedview
     id="namedview7"
     pagecolor="#ffffff"
     bordercolor="#666666"
     borderopacity="1.0"
     inkscape:pageshadow="2"
     inkscape:pageopacity="0.0"
     inkscape:pagecheckerboard="0"
     inkscape:document-units="mm"
     showgrid="false"
     inkscape:zoom="5.701459"
     inkscape:cx="4.9987205"
     inkscape:cy="35.692618"
     inkscape:window-width="1920"
     inkscape:window-height="972"
     inkscape:window-x="1920"
     inkscape:window-y="1107"
     inkscape:window-maximized="1"
     inkscape:current-layer="layer1" />
  <defs
     id="defs2" />
  <g
     inkscape:label="Layer 1"
     inkscape:groupmode="layer"
     id="layer1"
     transform="translate(-126.67735,-103.17712)">
    <path
       d="m 131.83672,104.07671 c -0.58208,-0.58209 -1.34937,-0.89959 -2.14312,-0.89959 -1.64042,0 -2.98979,1.34938 -2.98979,3.01625 0,0.52917 0.13229,1.03188 0.39687,1.48167 l -0.42333,1.56104 1.5875,-0.42333 c 0.42333,0.23812 0.92604,0.34396 1.42875,0.34396 1.66687,0 3.01625,-1.34938 3.01625,-3.01625 -0.0265,-0.74084 -0.3175,-1.50813 -0.87313,-2.06375 z m -2.14312,4.6302 c -0.44979,0 -0.87313,-0.13229 -1.27,-0.34395 l -0.10583,-0.0529 -0.92605,0.26458 0.26459,-0.89958 -0.0794,-0.13229 c -0.26458,-0.39688 -0.37041,-0.84667 -0.37041,-1.34938 0,-1.37583 1.11125,-2.48708 2.48708,-2.48708 0.66146,0 1.29646,0.26458 1.77271,0.74083 0.47625,0.47625 0.74083,1.11125 0.74083,1.77271 -0.0265,1.37583 -1.13771,2.48708 -2.51354,2.48708 z m 1.34937,-1.87854 c -0.0794,-0.0265 -0.44979,-0.23812 -0.5027,-0.26458 -0.0794,-0.0265 -0.1323,-0.0265 -0.18521,0.0265 -0.0529,0.0794 -0.21167,0.26458 -0.23813,0.29104 -0.0529,0.0529 -0.0794,0.0529 -0.15875,0.0265 -0.0794,-0.0265 -0.3175,-0.13229 -0.60854,-0.37042 -0.23812,-0.21167 -0.37042,-0.44979 -0.42333,-0.52917 -0.0529,-0.0794 0,-0.13229 0.0265,-0.15875 0.0265,-0.0264 0.0794,-0.0794 0.10583,-0.13229 0.0529,-0.0265 0.0794,-0.0794 0.10583,-0.13229 0.0265,-0.0529 0,-0.10583 0,-0.13229 0,-0.0265 -0.18521,-0.39688 -0.26458,-0.55563 -0.0265,-0.10583 -0.10583,-0.0794 -0.13229,-0.0794 h -0.15875 c 0,0 -0.10584,0.0265 -0.18521,0.0794 -0.0794,0.0794 -0.26458,0.26459 -0.26458,0.635 0,0.37042 0.26458,0.74084 0.29104,0.79375 0.0265,0.0529 0.52916,0.82021 1.29646,1.13771 0.1852,0.0794 0.3175,0.13229 0.42333,0.15875 0.18521,0.0529 0.34396,0.0529 0.47625,0.0265 0.15875,-0.0265 0.44979,-0.18521 0.50271,-0.34396 0.0529,-0.18521 0.0529,-0.3175 0.0529,-0.34396 -0.0264,-0.0794 -0.0794,-0.10583 -0.15875,-0.13229 z"
       id="path1793"
       style="stroke-width:0.264583;fill:#ffffff" />
  </g>
</svg>
