<?xml version="1.0" encoding="UTF-8" standalone="no"?>
<svg
   width="51.145439"
   height="52.994114"
   viewBox="0 0 51.145439 52.994114"
   fill="none"
   version="1.1"
   id="svg4"
   sodipodi:docname="model2.svg"
   inkscape:version="1.1.1 (50ffc5b540, 2022-01-11)"
   xmlns:inkscape="http://www.inkscape.org/namespaces/inkscape"
   xmlns:sodipodi="http://sodipodi.sourceforge.net/DTD/sodipodi-0.dtd"
   xmlns="http://www.w3.org/2000/svg"
   xmlns:svg="http://www.w3.org/2000/svg">
  <defs
     id="defs8" />
  <sodipodi:namedview
     id="namedview6"
     pagecolor="#ffffff"
     bordercolor="#666666"
     borderopacity="1.0"
     inkscape:pageshadow="2"
     inkscape:pageopacity="0.0"
     inkscape:pagecheckerboard="0"
     showgrid="false"
     inkscape:zoom="6.25"
     inkscape:cx="22.16"
     inkscape:cy="18.8"
     inkscape:window-width="1920"
     inkscape:window-height="972"
     inkscape:window-x="1920"
     inkscape:window-y="1107"
     inkscape:window-maximized="1"
     inkscape:current-layer="svg4" />
  <path
     d="m 48.793286,39.832224 c -1.1443,-0.902711 -2.57157,-1.370459 -4.028188,-1.320128 -1.456681,0.05041 -2.848195,0.61561 -3.927421,1.595233 l -9.34257,-7.386778 c 0.76477,-1.559955 0.972856,-3.334543 0.589507,-5.029096 -0.38327,-1.69449 -1.334855,-3.206782 -2.69653,-4.285696 -0.349194,-0.272778 -0.722797,-0.512589 -1.116076,-0.71671 l 10.860503,-7.641386 c 0.170585,0.184593 0.352572,0.358313 0.544908,0.520073 0.906747,0.723811 2.043816,1.096984 3.203117,1.051369 1.15938,-0.04555 2.263514,-0.507033 3.110638,-1.299837 0.847107,-0.792944 1.380472,-1.864164 1.502609,-3.017968 C 47.615914,11.147505 47.318598,9.9882693 46.656257,9.0356358 45.993994,8.0830642 45.010882,7.4006944 43.886774,7.1133516 42.762665,6.8260088 41.572647,6.9528793 40.534486,7.4708676 39.496254,7.9887861 38.679098,8.8631613 38.232612,9.933978 c -0.446549,1.070895 -0.492697,2.266767 -0.129918,3.368842 l -12.154583,8.56867 c -1.991441,-0.331099 -4.032918,0.140507 -5.677313,1.311572 l -1.149501,-9.83253 C 20.77733,12.908681 22.20501,11.856926 23.117805,10.406103 24.030615,8.9554208 24.361032,7.2133041 24.042681,5.5290932 23.724407,3.8449441 22.780991,2.3434441 21.401675,1.3259241 20.022391,0.30842892 18.309349,-0.14980968 16.60625,0.04320922 c -1.703091,0.193025 -3.270194,1.02299908 -4.386762,2.32328758 -1.11663,1.3003669 -1.700174,2.9749272 -1.633494,4.6875781 0.06662,1.7127293 0.778565,3.3367871 1.992824,4.5464581 1.214352,1.209618 2.841156,1.915315 4.554083,1.975339 l 1.347467,11.404093 c -1.139871,1.634349 -1.594272,3.650171 -1.26569,5.615535 l -5.571523,0.69407 C 11.400275,29.969583 10.712528,28.772726 9.6942683,27.898281 8.6760864,27.023898 7.3889613,26.524815 6.04744,26.484233 4.7059185,26.443651 3.3910859,26.863981 2.3217977,27.675282 1.25265,28.486567 0.49378168,29.639681 0.17161213,30.942645 c -0.32218597,1.302823 -0.18803916,2.676813 0.37985848,3.892879 0.56795939,1.215987 1.53546899,2.200734 2.74128879,2.789911 1.2058364,0.589319 2.5772048,0.74758 3.8856246,0.448387 1.3083578,-0.299115 2.4747201,-1.037616 3.30468,-2.092324 0.614025,-0.780147 1.022712,-1.70174 1.18878,-2.680541 l 6.113133,-0.75027 c 0.636091,1.381019 1.674255,2.537764 2.978628,3.318959 1.304435,0.781117 2.814367,1.150282 4.33205,1.058996 l -2.057382,6.455608 c -0.722117,-0.0062 -1.436124,0.151947 -2.088101,0.462533 -0.651977,0.310587 -1.224728,0.765401 -1.674861,1.33004 -0.593069,0.746871 -0.951244,1.652947 -1.029202,2.603508 -0.07782,0.950544 0.12799,1.902885 0.591496,2.736322 0.463522,0.833578 1.16385,1.510827 2.01252,1.946123 0.84853,0.435311 1.807228,0.609069 2.754637,0.499306 0.947409,-0.109763 1.840889,-0.498133 2.56751,-1.115954 0.726558,-0.617744 1.253617,-1.437203 1.514211,-2.354652 0.260671,-0.917388 0.243321,-1.891548 -0.0498,-2.799082 -0.293261,-0.907518 -0.849064,-1.70774 -1.597176,-2.29924 -0.318934,-0.244137 -0.665542,-0.449728 -1.032707,-0.612549 l 2.331906,-7.33489 c 1.163139,-0.431143 2.202252,-1.141882 3.025787,-2.069472 l 9.23275,7.299947 c -0.569951,1.028653 -0.833533,2.198829 -0.759614,3.372477 0.07392,1.173648 0.482152,2.301591 1.176586,3.250558 0.694371,0.949046 1.646026,1.679425 2.742226,2.104932 1.096279,0.42557 2.291444,0.528398 3.444259,0.296376 1.152816,-0.232022 2.215156,-0.789138 3.06152,-1.605489 0.846348,-0.816492 1.441277,-1.858031 1.714568,-3.001791 0.273292,-1.143759 0.213461,-2.341836 -0.172342,-3.452681 -0.385803,-1.110845 -1.081554,-2.088135 -2.004959,-2.816193 z M 44.403461,9.5903811 c 0.439097,0.3446516 0.766018,0.8118329 0.939342,1.3423559 0.173403,0.530585 0.185417,1.100669 0.0346,1.638076 -0.1509,0.537345 -0.457801,1.017891 -0.881976,1.380726 -0.424176,0.362836 -0.946385,0.591686 -1.500684,0.657485 -0.5543,0.0658 -1.115624,-0.03446 -1.612981,-0.287848 -0.497295,-0.253471 -0.908161,-0.648823 -1.180681,-1.135955 -0.272441,-0.48707 -0.394167,-1.044157 -0.349857,-1.600507 0.04429,-0.556491 0.252781,-1.087185 0.598986,-1.525054 0.4623,-0.5890563 1.139341,-0.9708461 1.882655,-1.0617464 0.743313,-0.0909 1.492341,0.1165105 2.083004,0.5767789 z M 3.4687322,35.356327 C 2.8667601,34.880373 2.4194413,34.23655 2.1833728,33.506449 1.9472257,32.776286 1.9329794,31.992487 2.1423255,31.254168 2.3517498,30.515911 2.7752579,29.856282 3.359462,29.358766 c 0.5843446,-0.497533 1.3029476,-0.81064 2.0651712,-0.899821 0.7621616,-0.0891 1.5336869,0.04987 2.2168959,0.399214 0.6832875,0.349407 1.2475893,0.893482 1.6215932,1.563603 0.3740659,0.670042 0.5409973,1.435991 0.4796401,2.200934 -0.061357,0.764944 -0.3480451,1.494507 -0.8239992,2.096479 -0.6382027,0.807179 -1.5709695,1.327789 -2.5930528,1.44735 C 5.3036107,36.285946 4.2759115,35.994529 3.4687322,35.356327 Z M 25.284051,49.92768 c -0.344884,0.439424 -0.812541,0.766478 -1.343595,0.939765 -0.530993,0.173208 -1.101516,0.184875 -1.639207,0.03345 -0.537692,-0.151428 -1.018258,-0.45911 -1.380832,-0.884099 -0.362497,-0.424927 -0.590665,-0.947999 -0.65553,-1.502835 -0.06486,-0.554836 0.03644,-1.116354 0.291204,-1.613515 0.254767,-0.497162 0.651403,-0.907395 1.139666,-1.178766 0.488263,-0.27137 1.046093,-0.391617 1.602719,-0.34556 0.556704,0.04612 1.08719,0.256483 1.524132,0.604505 0.582318,0.463728 0.957632,1.138964 1.044153,1.878433 0.08638,0.739484 -0.123061,1.483083 -0.58271,2.068625 z M 13.660431,3.9081199 c 0.577796,-0.7275866 1.358313,-1.2676098 2.242925,-1.5518278 0.884619,-0.2842117 1.833652,-0.2998846 2.727143,-0.044977 0.893499,0.2549143 1.691355,0.7689727 2.292859,1.4770823 0.601506,0.7082379 0.979577,1.5787876 1.086483,2.5017558 0.106905,0.9229682 -0.06212,1.8569796 -0.485858,2.6839373 -0.423675,0.8268794 -1.082893,1.5097221 -1.89442,1.9621231 -0.811667,0.452418 -1.739075,0.654101 -2.665236,0.579626 -0.926162,-0.07448 -1.809468,-0.421785 -2.53829,-0.998034 C 13.449127,9.7420898 12.819882,8.6104824 12.67634,7.3713326 12.532868,6.1321105 12.886773,4.8866188 13.660431,3.9081199 Z M 21.20743,33.752401 c -0.868835,-0.686952 -1.514459,-1.616067 -1.855161,-2.669963 -0.340763,-1.053818 -0.361386,-2.185072 -0.05916,-3.250628 0.302085,-1.065539 0.913455,-2.01759 1.756712,-2.735688 0.843256,-0.718099 1.880445,-1.170042 2.980565,-1.298655 1.100119,-0.128613 2.213586,0.0719 3.199742,0.576128 0.986156,0.504225 1.800643,1.289582 2.340363,2.256708 0.53986,0.967109 0.780732,2.072615 0.692235,3.176616 -0.08842,1.104064 -0.50232,2.157046 -1.189272,3.025881 -0.456107,0.576871 -1.021412,1.058224 -1.663526,1.416637 -0.642176,0.358492 -1.348613,0.586882 -2.07903,0.672273 -0.730416,0.08539 -1.470563,0.02605 -2.178034,-0.174588 -0.707534,-0.200558 -1.368563,-0.538614 -1.945434,-0.994721 z m 21.172819,14.190837 c -0.647847,-0.509676 -1.130071,-1.199964 -1.385859,-1.983646 -0.255648,-0.783698 -0.273334,-1.625543 -0.05081,-2.419224 0.222444,-0.793743 0.675245,-1.503641 1.301018,-2.040189 0.625852,-0.536486 1.396673,-0.875489 2.215018,-0.974222 0.818424,-0.09867 1.647666,0.04744 2.383123,0.419862 0.735317,0.372442 1.343925,0.95448 1.748673,1.672621 0.404733,0.718 0.587618,1.540034 0.525447,2.361955 -0.06216,0.822062 -0.366564,1.607091 -0.87467,2.256178 -0.33784,0.431481 -0.757515,0.79201 -1.235048,1.060774 -0.477533,0.268763 -1.003488,0.440599 -1.547563,0.505559 -0.544153,0.0649 -1.095749,0.02167 -1.623103,-0.127195 -0.527415,-0.148785 -1.020155,-0.400439 -1.450023,-0.740318 z"
     fill="black"
     id="path2"
     style="fill:#5d78ff;fill-opacity:1" />
</svg>
