<?xml version="1.0" encoding="UTF-8" standalone="no"?>
<svg
   width="51.000099"
   height="46.740021"
   viewBox="0 0 51.000099 46.740021"
   fill="none"
   version="1.1"
   id="svg37"
   sodipodi:docname="tune.svg"
   inkscape:version="1.1.1 (50ffc5b540, 2022-01-11)"
   xmlns:inkscape="http://www.inkscape.org/namespaces/inkscape"
   xmlns:sodipodi="http://sodipodi.sourceforge.net/DTD/sodipodi-0.dtd"
   xmlns="http://www.w3.org/2000/svg"
   xmlns:svg="http://www.w3.org/2000/svg">
  <sodipodi:namedview
     id="namedview39"
     pagecolor="#ffffff"
     bordercolor="#666666"
     borderopacity="1.0"
     inkscape:pageshadow="2"
     inkscape:pageopacity="0.0"
     inkscape:pagecheckerboard="0"
     showgrid="false"
     inkscape:zoom="6.25"
     inkscape:cx="-7.12"
     inkscape:cy="20.08"
     inkscape:window-width="1920"
     inkscape:window-height="972"
     inkscape:window-x="1920"
     inkscape:window-y="1107"
     inkscape:window-maximized="1"
     inkscape:current-layer="svg37" />
  <path
     d="m 26.5002,23.85002 v -22.35 c 0,-0.39784 -0.1581,-0.77937 -0.4394,-1.06068 C 25.7795,0.15804 25.398,0 25.0002,0 24.6023,0 24.2208,0.15804 23.9395,0.43934 23.6582,0.72065 23.5002,1.10218 23.5002,1.50002 v 22.35 c -1.4965,0.2734 -2.8499,1.0622 -3.8254,2.2295 -0.9755,1.1672 -1.5114,2.6393 -1.5146,4.1605 v 4.93 c 0.0032,1.5212 0.5391,2.9932 1.5146,4.1605 0.9755,1.1673 2.3289,1.9561 3.8254,2.2295 v 3.68 c 0,0.3978 0.158,0.7793 0.4393,1.0606 0.2813,0.2813 0.6628,0.4394 1.0607,0.4394 0.3978,0 0.7793,-0.1581 1.0606,-0.4394 0.2813,-0.2813 0.4394,-0.6628 0.4394,-1.0606 v -3.68 c 1.4882,-0.2835 2.8312,-1.0764 3.7984,-2.2425 0.9672,-1.166 1.4981,-2.6325 1.5016,-4.1475 v -4.93 c -0.0016,-1.5155 -0.5318,-2.983 -1.4993,-4.1495 -0.9675,-1.1665 -2.3117,-1.9588 -3.8007,-2.2405 z m -5.37,11.32 v -4.93 c 0.0061,-0.7262 0.2374,-1.4326 0.6618,-2.0219 0.4245,-0.5892 1.0213,-1.0323 1.7082,-1.2681 v 11.5 c -0.6877,-0.2314 -1.2859,-0.672 -1.7108,-1.2601 -0.4249,-0.5881 -0.6554,-1.2944 -0.6592,-2.0199 z m 7.67,0 c -2e-4,0.7167 -0.2211,1.416 -0.6326,2.0028 -0.4115,0.5869 -0.9937,1.0328 -1.6674,1.2772 v -11.5 c 0.6793,0.2425 1.2675,0.6884 1.6844,1.2771 0.4169,0.5887 0.6423,1.2915 0.6456,2.0129 z"
     fill="url(#paint0_linear_205_8840)"
     id="path2"
     style="fill:#5d78ff;fill-opacity:1" />
  <path
     d="m 45.6701,4.85002 v -3.35 C 45.6701,1.10218 45.512,0.72065 45.2307,0.43934 44.9494,0.15804 44.5679,0 44.1701,0 43.7722,0 43.3907,0.15804 43.1094,0.43934 42.8281,0.72065 42.6701,1.10218 42.6701,1.50002 v 3.35 c -1.4965,0.2734 -2.8499,1.0622 -3.8254,2.2295 -0.9755,1.1672 -1.5114,2.6393 -1.5146,4.1605 v 4.93 c 0.0032,1.5212 0.5391,2.9932 1.5146,4.1605 0.9755,1.1673 2.3289,1.9561 3.8254,2.2295 v 22.68 c 0,0.3978 0.158,0.7793 0.4393,1.0606 0.2813,0.2813 0.6628,0.4394 1.0607,0.4394 0.3978,0 0.7793,-0.1581 1.0606,-0.4394 0.2813,-0.2813 0.4394,-0.6628 0.4394,-1.0606 v -22.68 c 1.4946,-0.2755 2.8457,-1.0652 3.8192,-2.2323 0.9735,-1.1671 1.5079,-2.6379 1.5108,-4.1577 v -4.93 c -9e-4,-1.5203 -0.5347,-2.9922 -1.5085,-4.1597 -0.9738,-1.1675 -2.3261,-1.9567 -3.8215,-2.2303 z m -5.34,11.32 v -4.93 c 0.0025,-0.7229 0.2288,-1.4273 0.6478,-2.0164 0.419,-0.5891 1.0101,-1.034 1.6922,-1.2736 v 11.5 c -0.6821,-0.2365 -1.2737,-0.6792 -1.693,-1.2669 -0.4192,-0.5877 -0.6454,-1.2912 -0.647,-2.0131 z m 7.67,0 c -0.0024,0.7203 -0.2276,1.4223 -0.6448,2.0095 -0.4172,0.5873 -1.0058,1.0311 -1.6852,1.2705 v -11.5 c 0.6794,0.2425 1.2675,0.6884 1.6844,1.2771 0.4169,0.5887 0.6423,1.2915 0.6456,2.0129 z"
     fill="url(#paint1_linear_205_8840)"
     id="path4"
     style="fill:#5d78ff;fill-opacity:1" />
  <path
     d="m 8.33,11.85002 v -10.35 C 8.33,1.10218 8.172,0.72065 7.8907,0.43934 7.6094,0.15804 7.2278,0 6.83,0 6.4322,0 6.0506,0.15804 5.7693,0.43934 5.488,0.72065 5.33,1.10218 5.33,1.50002 v 10.35 c -1.4955,0.2736 -2.84771,1.0628 -3.82152,2.2303 C 0.53467,15.24782 9e-4,16.71972 0,18.24002 v 4.93 c 0.00284,1.5198 0.53731,2.9906 1.51079,4.1577 0.97348,1.1671 2.32461,1.9568 3.81921,2.2323 v 15.68 c 0,0.3978 0.158,0.7793 0.4393,1.0606 0.2813,0.2813 0.6629,0.4394 1.0607,0.4394 0.3978,0 0.7794,-0.1581 1.0607,-0.4394 0.2813,-0.2813 0.4393,-0.6628 0.4393,-1.0606 v -15.68 c 1.4964,-0.2734 2.8499,-1.0622 3.8254,-2.2295 0.9754,-1.1673 1.5113,-2.6393 1.5146,-4.1605 v -4.93 c -0.0033,-1.5212 -0.5392,-2.9933 -1.5146,-4.1605 -0.9755,-1.1673 -2.329,-1.9561 -3.8254,-2.2295 z M 3,23.17002 v -4.93 c 0.00323,-0.7214 0.22864,-1.4242 0.6455,-2.0129 0.417,-0.5887 1.0051,-1.0346 1.6845,-1.2771 v 11.5 C 4.6506,26.21062 4.062,25.76682 3.6448,25.17952 3.22762,24.59232 3.00239,23.89032 3,23.17002 Z m 7.67,0 c -0.0017,0.7219 -0.2278,1.4254 -0.647,2.0131 -0.4193,0.5877 -1.0109,1.0304 -1.693,1.2669 v -11.5 c 0.6821,0.2396 1.2732,0.6845 1.6922,1.2736 0.419,0.5891 0.6453,1.2935 0.6478,2.0164 z"
     fill="url(#paint2_linear_205_8840)"
     id="path6"
     style="fill:#5d78ff;fill-opacity:1" />
  <defs
     id="defs35">
    <linearGradient
       id="paint0_linear_205_8840"
       x1="24.630199"
       y1="31.999901"
       x2="38.300201"
       y2="31.999901"
       gradientUnits="userSpaceOnUse">
      <stop
         stop-color="#0170FE"
         id="stop8" />
      <stop
         offset="0.38"
         stop-color="#035ED4"
         id="stop10" />
      <stop
         offset="0.79"
         stop-color="#044DAD"
         id="stop12" />
      <stop
         offset="1"
         stop-color="#05479E"
         id="stop14" />
    </linearGradient>
    <linearGradient
       id="paint1_linear_205_8840"
       x1="642.98602"
       y1="8.62988"
       x2="829.85498"
       y2="8.62988"
       gradientUnits="userSpaceOnUse">
      <stop
         stop-color="#0170FE"
         id="stop17" />
      <stop
         offset="0.38"
         stop-color="#035ED4"
         id="stop19" />
      <stop
         offset="0.79"
         stop-color="#044DAD"
         id="stop21" />
      <stop
         offset="1"
         stop-color="#05479E"
         id="stop23" />
    </linearGradient>
    <linearGradient
       id="paint2_linear_205_8840"
       x1="95.355003"
       y1="8.62988"
       x2="282.224"
       y2="8.62988"
       gradientUnits="userSpaceOnUse">
      <stop
         stop-color="#0170FE"
         id="stop26" />
      <stop
         offset="0.38"
         stop-color="#035ED4"
         id="stop28" />
      <stop
         offset="0.79"
         stop-color="#044DAD"
         id="stop30" />
      <stop
         offset="1"
         stop-color="#05479E"
         id="stop32" />
    </linearGradient>
  </defs>
</svg>
